<svg width="278" height="61" viewBox="0 0 278 61" fill="none" xmlns="http://www.w3.org/2000/svg">
<g clip-path="url(#clip0_154_1317)">
<path d="M22.4749 59.8037L38.3303 43.8091C39.0252 43.1053 39.4153 42.1524 39.4153 41.1591C39.4153 40.1658 39.0252 39.213 38.3303 38.5092L27.76 27.854C28.1074 28.2023 28.3831 28.6164 28.5712 29.0725C28.7593 29.5286 28.8561 30.0178 28.8561 30.5119C28.8561 31.0059 28.7593 31.4951 28.5712 31.9512C28.3831 32.4074 28.1074 32.8215 27.76 33.1697L11.9203 49.1565C11.5753 49.5044 11.3016 49.9176 11.1149 50.3722C10.9281 50.8269 10.832 51.3142 10.832 51.8064C10.832 52.2986 10.9281 52.7859 11.1149 53.2406C11.3016 53.6953 11.5753 54.1084 11.9203 54.4563L17.2211 59.8037C17.9188 60.5047 18.8633 60.8983 19.848 60.8983C20.8327 60.8983 21.7772 60.5047 22.4749 59.8037Z" fill="#5A3CFA"/>
<path d="M11.9202 54.4564C11.5752 54.1084 11.3015 53.6953 11.1148 53.2406C10.928 52.7859 10.8319 52.2986 10.8319 51.8064C10.8319 51.3143 10.928 50.827 11.1148 50.3723C11.3015 49.9176 11.5752 49.5045 11.9202 49.1565L27.7599 33.1698C28.1073 32.8215 28.383 32.4074 28.5711 31.9513C28.7592 31.4951 28.856 31.0059 28.856 30.5119C28.856 30.0179 28.7592 29.5287 28.5711 29.0725C28.383 28.6164 28.1073 28.2023 27.7599 27.854L22.4748 22.5146C22.1298 22.1665 21.7203 21.8904 21.2696 21.7021C20.8189 21.5137 20.3358 21.4167 19.8479 21.4167C19.36 21.4167 18.8769 21.5137 18.4262 21.7021C17.9755 21.8904 17.566 22.1665 17.221 22.5146L1.36561 38.5092C1.02059 38.8572 0.746904 39.2703 0.560179 39.725C0.373453 40.1797 0.277344 40.667 0.277344 41.1592C0.277344 41.6513 0.373453 42.1387 0.560179 42.5933C0.746904 43.048 1.02059 43.4611 1.36561 43.8091L11.9202 54.4564Z" fill="#7864FA"/>
<path d="M30.3995 30.5159L22.4836 38.4934C21.7838 39.1994 21.3906 40.1568 21.3906 41.1552C21.3906 42.1536 21.7838 43.1111 22.4836 43.817C23.1834 44.523 24.1325 44.9196 25.1222 44.9196C26.1119 44.9196 27.0611 44.523 27.7609 43.817L33.0382 38.4934C33.7388 37.789 34.6876 37.3935 35.6768 37.3935C36.666 37.3935 37.6148 37.789 38.3155 38.4934L30.3995 30.5159Z" fill="#2D1ECD"/>
<path d="M22.4827 38.4934L38.3303 22.5146C39.0252 21.8108 39.4153 20.858 39.4153 19.8646C39.4153 18.8713 39.0252 17.9185 38.3303 17.2147L27.76 6.55951C28.1076 6.90844 28.3835 7.32322 28.5717 7.78002C28.7599 8.23682 28.8568 8.72664 28.8568 9.22133C28.8568 9.71602 28.7599 10.2058 28.5717 10.6626C28.3835 11.1194 28.1076 11.5342 27.76 11.8831L11.9203 27.862C11.5753 28.2099 11.3016 28.6231 11.1149 29.0777C10.9281 29.5324 10.832 30.0198 10.832 30.5119C10.832 31.0041 10.9281 31.4914 11.1149 31.9461C11.3016 32.4008 11.5753 32.8139 11.9203 33.1618L22.4827 43.817C21.7845 43.1102 21.3924 42.1531 21.3924 41.1552C21.3924 40.1574 21.7845 39.2002 22.4827 38.4934Z" fill="#3791FA"/>
<path d="M11.9202 27.8619L27.7599 11.8831C28.1075 11.5342 28.3834 11.1194 28.5716 10.6626C28.7598 10.2058 28.8567 9.71596 28.8567 9.22127C28.8567 8.72658 28.7598 8.23676 28.5716 7.77996C28.3834 7.32316 28.1075 6.90838 27.7599 6.55945L22.4748 1.21997C21.7771 0.518998 20.8326 0.125427 19.8479 0.125427C18.8632 0.125427 17.9187 0.518998 17.221 1.21997L1.36561 17.2146C1.02059 17.5626 0.746904 17.9757 0.560179 18.4304C0.373453 18.8851 0.277344 19.3724 0.277344 19.8646C0.277344 20.3567 0.373453 20.8441 0.560179 21.2988C0.746904 21.7534 1.02059 22.1666 1.36561 22.5145L11.9202 33.1618C11.5752 32.8138 11.3015 32.4007 11.1148 31.946C10.928 31.4913 10.8319 31.004 10.8319 30.5119C10.8319 30.0197 10.928 29.5324 11.1148 29.0777C11.3015 28.623 11.5752 28.2099 11.9202 27.8619Z" fill="#5AC3FA"/>
<path d="M73.3649 36.6C73.4049 37.7201 73.1825 38.834 72.7159 39.8512C72.2492 40.8684 71.5514 41.7602 70.6791 42.4544C68.7061 43.9595 66.2701 44.7141 63.7998 44.5855C58.6089 44.5855 54.8472 42.0663 53.418 37.923L57.2581 35.6494C58.334 38.7073 60.5643 40.2204 63.949 40.2204C67.3337 40.2204 68.9436 38.7865 68.9436 36.6555C68.9636 36.1528 68.8495 35.6539 68.6133 35.2108C68.3771 34.7677 68.0274 34.3966 67.6007 34.1363C66.0952 33.2977 64.491 32.6536 62.826 32.2191C60.8168 31.7183 58.9053 30.88 57.1718 29.7395C56.3114 29.1257 55.6199 28.3012 55.1624 27.3436C54.705 26.386 54.4965 25.3266 54.5567 24.2653C54.512 23.1824 54.718 22.1039 55.1583 21.1152C55.5985 20.1266 56.261 19.2549 57.0932 18.5694C58.8087 17.1341 60.9829 16.3767 63.2108 16.4383C65.1836 16.3843 67.1279 16.9224 68.7972 17.9844C70.4665 19.0464 71.7856 20.5845 72.5874 22.4037L68.865 24.5585C68.4418 23.4048 67.6678 22.4157 66.6536 21.7327C65.6394 21.0498 64.4371 20.7078 63.2186 20.7559C60.6428 20.7559 58.9858 22.0709 58.9858 24.1307C58.9858 26.1904 60.2973 27.0777 64.4123 28.3531C65.4489 28.7017 66.1793 28.9394 66.6348 29.1453C67.0902 29.3513 67.7892 29.5731 68.6373 29.9376C69.3425 30.1969 70.0044 30.5628 70.6006 31.0229C71.4865 31.6456 72.2036 32.4822 72.6865 33.4565C73.1694 34.4307 73.4026 35.5115 73.3649 36.6ZM104.447 35.0869C104.447 38.8499 102.484 40.6324 99.5628 40.6324C96.9085 40.6324 95.2593 39.0479 95.2593 36.1326V24.6931H91.0972V36.5763C91.0972 41.5434 94.0578 44.5617 98.4791 44.5617C101.212 44.5617 103.191 43.5556 104.44 41.583V42.2168C104.439 42.4588 104.485 42.6987 104.576 42.9226C104.667 43.1465 104.801 43.35 104.97 43.5215C105.14 43.693 105.341 43.8291 105.562 43.922C105.784 44.0148 106.022 44.0626 106.262 44.0626H108.617V24.6931H104.447V35.0869ZM128.203 16.9374H132.35V44.0864H129.994C129.754 44.0864 129.516 44.0386 129.295 43.9457C129.073 43.8529 128.872 43.7168 128.703 43.5453C128.533 43.3738 128.399 43.1702 128.308 42.9463C128.217 42.7224 128.171 42.4826 128.172 42.2405V41.2899C127.416 42.3664 126.402 43.2329 125.226 43.809C124.049 44.3851 122.748 44.6522 121.442 44.5855C120.168 44.609 118.904 44.3583 117.734 43.8502C116.564 43.342 115.515 42.588 114.657 41.6385C112.848 39.6652 111.844 37.0769 111.844 34.3898C111.844 31.7027 112.848 29.1143 114.657 27.1411C115.512 26.1946 116.558 25.4424 117.723 24.9343C118.889 24.4262 120.148 24.1739 121.418 24.194C122.72 24.1309 124.016 24.3955 125.191 24.9639C126.366 25.5323 127.382 26.3867 128.148 27.45L128.203 16.9374ZM128.203 34.366C128.221 33.5504 128.073 32.7399 127.769 31.9839C127.465 31.2279 127.012 30.5423 126.436 29.9692C125.275 28.8263 123.716 28.1865 122.093 28.1865C120.471 28.1865 118.912 28.8263 117.751 29.9692C117.179 30.5482 116.731 31.239 116.434 31.9993C116.136 32.7595 115.997 33.573 116.023 34.3898C116 35.212 116.141 36.0306 116.438 36.7967C116.735 37.5629 117.181 38.2611 117.751 38.8499C118.928 39.9649 120.484 40.5829 122.1 40.577C123.715 40.5711 125.266 39.9418 126.436 38.8182C127.003 38.2336 127.448 37.5408 127.746 36.7804C128.044 36.02 128.189 35.2073 128.172 34.3898L128.203 34.366ZM145.229 38.7469L139.496 24.6694H134.965L143.108 43.6824L142.92 44.0705C141.883 46.7403 140.423 48.0316 137.807 47.8652V51.8263C142.229 52.0956 145.339 49.6952 147.184 44.6964L154.566 24.6852H150.145L145.229 38.7469ZM171.819 31.1496C171.252 30.7945 170.646 30.5074 170.013 30.294C169.413 30.0238 168.796 29.791 168.168 29.5969L166.094 28.8602C164.482 28.3905 162.942 27.7002 161.516 26.8083C161.053 26.4609 160.684 26.0018 160.442 25.4731C160.201 24.9443 160.095 24.3629 160.134 23.7821C160.134 20.8351 162.364 19.0843 165.71 19.0843C167.146 19.0112 168.567 19.4104 169.76 20.2218C170.952 21.0332 171.851 22.2131 172.322 23.584L174.591 22.3086C173.849 20.5575 172.608 19.0683 171.025 18.0302C169.442 16.992 167.589 16.4518 165.702 16.4779C163.563 16.3996 161.47 17.1156 159.82 18.4902C159.041 19.1525 158.424 19.9861 158.016 20.927C157.607 21.8678 157.419 22.8907 157.464 23.9168C157.429 25.0093 157.692 26.0905 158.225 27.0421C158.759 27.9936 159.541 28.7788 160.487 29.3117C162.238 30.2498 164.08 31.0037 165.984 31.5616C167.769 32.0746 169.476 32.8316 171.058 33.8115C171.572 34.1655 171.987 34.6477 172.262 35.2113C172.537 35.7748 172.663 36.4006 172.628 37.0278C172.628 39.9748 170.272 41.9157 166.283 41.9157C162.168 41.9157 159.521 39.9352 158.555 36.5604L156.278 37.923C157.66 42.0663 161.351 44.5538 166.267 44.5538C168.63 44.6648 170.956 43.9359 172.84 42.494C174.113 41.4154 174.968 39.9187 175.255 38.2669C175.543 36.6152 175.244 34.9142 174.411 33.4629C173.724 32.505 172.826 31.7213 171.788 31.1734L171.819 31.1496ZM196.164 27.8937V26.0795C196.165 25.8944 196.129 25.711 196.059 25.5402C195.988 25.3694 195.884 25.2147 195.753 25.0854C195.622 24.956 195.466 24.8546 195.295 24.7872C195.124 24.7198 194.942 24.6878 194.758 24.6931H193.588V44.0864H196.125V33.2728C196.125 28.8126 198.7 26.8321 202.203 26.8321V24.3842C199.344 24.3842 197.342 25.5487 196.148 27.9174L196.164 27.8937ZM220.768 27.2678C222.514 29.2391 223.459 31.8021 223.414 34.4452C223.414 34.7146 223.375 35.1424 223.336 35.6494H206.451C206.946 39.5629 209.985 42.0425 214.1 42.0425C217.022 42.0425 219.213 40.7274 220.289 38.7469L222.519 40.0699C221.613 41.4885 220.357 42.6454 218.874 43.4273C217.392 44.2091 215.733 44.5891 214.061 44.53C212.701 44.5827 211.345 44.3548 210.076 43.8603C208.807 43.3659 207.651 42.6152 206.679 41.6543C204.86 39.6812 203.845 37.0884 203.838 34.3936C203.83 31.6987 204.831 29.1003 206.64 27.1173C207.578 26.1524 208.704 25.3954 209.948 24.8948C211.192 24.3942 212.526 24.1609 213.865 24.2099C215.169 24.1654 216.466 24.4196 217.659 24.9534C218.852 25.4871 219.909 26.2865 220.752 27.2916L220.768 27.2678ZM220.768 33.1618C220.609 31.3333 219.767 29.634 218.412 28.4086C217.143 27.2956 215.515 26.6897 213.833 26.7053C212.014 26.6329 210.236 27.2615 208.859 28.4635C207.482 29.6656 206.61 31.3509 206.42 33.1777L220.768 33.1618ZM245.112 24.6694H246.275V44.0864H245.112C244.748 44.0864 244.398 43.9403 244.141 43.6803C243.883 43.4203 243.738 43.0677 243.738 42.7V40.2838C242.946 41.6344 241.807 42.744 240.441 43.4956C239.075 44.2472 237.534 44.6128 235.979 44.5538C234.664 44.578 233.357 44.3289 232.141 43.8219C230.925 43.3149 229.826 42.5609 228.911 41.6068C227.062 39.6688 226.029 37.0835 226.029 34.3937C226.029 31.7039 227.062 29.1187 228.911 27.1807C229.825 26.225 230.924 25.47 232.14 24.9629C233.357 24.4558 234.663 24.2075 235.979 24.2337C237.534 24.1777 239.075 24.5464 240.439 25.3008C241.804 26.0551 242.941 27.1672 243.73 28.5195V26.1429C243.722 25.9556 243.751 25.7684 243.816 25.5929C243.881 25.4173 243.981 25.2569 244.11 25.1213C244.238 24.9858 244.393 24.878 244.564 24.8044C244.735 24.7308 244.919 24.6929 245.104 24.6931L245.112 24.6694ZM243.738 34.366C243.758 33.3586 243.574 32.3577 243.198 31.4246C242.821 30.4914 242.259 29.6458 241.547 28.9394C240.841 28.226 240.002 27.6601 239.079 27.274C238.156 26.8879 237.167 26.6892 236.168 26.6892C235.168 26.6892 234.179 26.8879 233.256 27.274C232.333 27.6601 231.494 28.226 230.788 28.9394C230.076 29.6458 229.514 30.4914 229.138 31.4246C228.761 32.3577 228.577 33.3586 228.597 34.366C228.58 35.3788 228.766 36.3847 229.142 37.3238C229.518 38.2629 230.078 39.116 230.788 39.8322C232.226 41.25 234.157 42.0438 236.168 42.0438C238.178 42.0438 240.109 41.25 241.547 39.8322C242.253 39.1181 242.81 38.2686 243.185 37.3338C243.559 36.3991 243.745 35.398 243.73 34.3898L243.738 34.366ZM270.541 24.2099C269.279 24.1495 268.026 24.4471 266.924 25.0688C265.822 25.6905 264.915 26.6116 264.305 27.7273C263.19 25.3507 261.227 24.202 258.463 24.202C257.279 24.1641 256.106 24.4504 255.071 25.0307C254.035 25.611 253.175 26.4635 252.581 27.4976V26.0795C252.582 25.8978 252.547 25.7177 252.479 25.5496C252.411 25.3814 252.31 25.2285 252.183 25.0997C252.056 24.9708 251.905 24.8686 251.739 24.7988C251.573 24.7291 251.394 24.6931 251.214 24.6931H250.044V44.0864H252.581V33.344C252.581 28.8443 255.039 26.7133 258.117 26.7133C260.881 26.7133 262.617 28.575 262.617 31.9894V44.0864H265.153V33.344C265.153 28.8047 267.305 26.7133 270.494 26.7133C273.297 26.7133 275.205 28.6146 275.205 31.9894V44.0864H277.742V31.9894C277.718 27.2124 274.86 24.2337 270.533 24.2337L270.541 24.2099ZM82.5059 19.2665H78.3594V24.6931H74.8177V28.7255H78.3594V38.8182C78.3584 39.5076 78.4921 40.1904 78.7529 40.8276C79.0137 41.4648 79.3965 42.0439 79.8793 42.5317C80.3622 43.0195 80.9356 43.4065 81.5669 43.6706C82.1982 43.9346 82.8748 44.0705 83.5582 44.0705H87.2727V40.3234H84.3749C83.8894 40.3236 83.423 40.1323 83.0752 39.7904C82.7275 39.4485 82.526 38.9831 82.5137 38.4934V28.7255H87.2806V24.6931H82.5137L82.5059 19.2665ZM183.85 19.2665H181.314V24.6931H177.277V27.1807H181.314V39.4678C181.32 40.6908 181.804 41.8619 182.661 42.7267C183.519 43.5915 184.68 44.0801 185.892 44.0864H189.387V41.8365H185.939C185.661 41.8324 185.386 41.773 185.13 41.6616C184.874 41.5503 184.643 41.3893 184.449 41.1877C184.255 40.9861 184.102 40.748 184 40.4869C183.897 40.2257 183.846 39.9468 183.85 39.6659V27.1807H189.387V24.6931H183.85V19.2665Z" fill="black"/>
</g>
<defs>
<clipPath id="clip0_154_1317">
<rect width="278" height="61" fill="white"/>
</clipPath>
</defs>
</svg>
