<svg width="102" height="102" viewBox="0 0 102 102" fill="none" xmlns="http://www.w3.org/2000/svg">
<path d="M56.1016 68.1538C65.4904 68.1538 73.1016 60.5427 73.1016 51.1538C73.1016 41.765 65.4904 34.1538 56.1016 34.1538C46.7127 34.1538 39.1016 41.765 39.1016 51.1538C39.1016 60.5427 46.7127 68.1538 56.1016 68.1538Z" fill="#E62415"/>
<path d="M57.0049 78.8589C64.4396 78.8589 71.2335 76.3118 76.3609 71.7271L79.9501 68.5433L96.1016 84.335L92.256 87.9009C83.0266 96.4335 70.4644 101.146 57.0049 101.146C50.2664 101.268 43.5727 100.035 37.3261 97.521C31.0795 95.0073 25.4089 91.2647 20.6553 86.5182C15.9017 81.7717 12.1632 76.1193 9.66444 69.9007C7.16571 63.6822 5.95842 57.0258 6.11507 50.3319C6.11507 21.2955 27.5221 0.155 57.0049 0.155C69.9029 0.0680623 82.3739 4.74264 91.9996 13.2723L95.9734 16.8382L80.0783 32.6299L76.4891 29.5734C71.2335 24.9887 64.3115 22.569 57.0049 22.569C40.2125 22.569 28.5476 34.0308 28.5476 50.4593C28.4236 54.2112 29.0739 57.9487 30.4585 61.4415C31.8431 64.9344 33.9326 68.1088 36.5984 70.7692C39.2642 73.4296 42.45 75.5198 45.9594 76.911C49.4689 78.3023 53.2278 78.9652 57.0049 78.8589Z" fill="#17313B"/>
</svg>
