<svg xmlns="http://www.w3.org/2000/svg" width="157" height="24" fill="none" viewBox="0 0 157 24"><rect width="35.267" height="24" fill="#2563eb" rx="12"/><g fill="#fff" clip-path="url(#a)"><path d="M19.74 11.064c.229 1.299-.055 2.71-.714 3.848-3.544 6.124-12.724 2.303-11.032-4.452 1.003-4.006 5.938-5.801 9.301-3.343L16.208 8.43c-3.771-2.542-8.49 1.873-6.077 5.803 1.055 1.719 3.216 2.513 5.13 1.803 1.315-.488 2.54-1.766 2.692-3.185H12.31l1.74-1.786h5.688m7.805 1.549c-.41 4.435-5.877 6.978-9.495 4.277l1.034-1.275c.17-.091.93.412 1.2.498 2.364.75 4.763-.754 5.46-3.05l-.14-.2-4.076-.016 1.833-1.786h4.043l.141.142c-.03.459.041.959 0 1.41"/><path d="m15.838 10.686-.104-.194c1.073-4.075 6.087-5.934 9.458-3.238-.301.165-.925 1.169-1.172 1.173-.21.004-.96-.495-1.289-.591-1.344-.393-2.78-.06-3.868.798-.716.564-1.027 1.318-1.52 2.053z"/></g><path fill="#141920" d="M47.81 3.392q2.113-.024 3.169.48 1.08.504 1.632 1.248l.096-1.08q.024-.192.096-.24a.43.43 0 0 1 .264-.072h.624q.168 0 .24.072.072.048.072.24v4.656q0 .168-.072.264t-.264.096h-.552q-.216 0-.312-.096a.6.6 0 0 1-.096-.264l-.048-.336q-.024-.192-.072-.528-.24-1.632-1.416-2.424-1.152-.816-3.36-.816-1.464 0-2.496.576A4.84 4.84 0 0 0 43.61 6.68a7.3 7.3 0 0 0-.984 2.208 10.5 10.5 0 0 0-.312 2.592v.672q0 2.328.6 3.864t1.8 2.304q1.224.744 3 .744 1.608 0 2.568-.384t1.464-.912q.528-.528.768-.912.192-.264.168-.456v-3.192q-.576 0-1.416-.024l-1.536-.048a80 80 0 0 1-.984-.072.6.6 0 0 1-.216-.072q-.072-.072-.072-.24v-.504q0-.144.072-.192.072-.072.216-.072h5.208q.168 0 .24.072.096.072.096.288v7.296q0 .192-.072.288-.048.072-.216.072h-.84q-.168 0-.24-.072a.36.36 0 0 1-.096-.168l-.072-.576q-.024-.384-.024-.912-.216.24-.576.6a4.5 4.5 0 0 1-.912.672q-.576.336-1.488.552-.888.24-2.208.24-2.352 0-3.888-.96-1.536-.984-2.28-2.832t-.744-4.392v-.624q0-1.608.408-3.048.432-1.464 1.296-2.592a5.9 5.9 0 0 1 2.232-1.8q1.368-.672 3.24-.696m10.202 7.56V9.44q0-.216.048-.312a.8.8 0 0 1 .144-.192q.12-.096.696-.36.576-.288 1.44-.504a8.3 8.3 0 0 1 1.968-.216q1.176 0 2.064.312.912.312 1.416.936.528.624.528 1.56v7.608q0 .336.312.552t1.08.216q.192 0 .24.072.072.072.072.216v.456q0 .144-.072.216a.8.8 0 0 1-.216.12 1.3 1.3 0 0 1-.288.024 4 4 0 0 1-.48.024q-.864 0-1.416-.384t-.672-1.2a3 3 0 0 1-.84.912q-.504.384-1.248.6-.72.24-1.704.24-1.728 0-2.784-.816-1.056-.84-1.056-2.688 0-1.104.48-1.776a3.3 3.3 0 0 1 1.2-1.008q.696-.36 1.32-.552.912-.24 2.088-.336 1.176-.12 2.448-.096v-2.16q0-.912-.816-1.368-.792-.48-1.944-.48-.84 0-1.536.168t-.936.336V11a.8.8 0 0 1-.096.408.46.46 0 0 1-.24.216 1.3 1.3 0 0 1-.384.048h-.096q-.432 0-.576-.168-.144-.192-.144-.552m6.768 5.592v-2.4a21 21 0 0 0-2.304.072q-1.008.072-1.656.264-.408.12-.888.36a2.1 2.1 0 0 0-.792.672q-.336.432-.336 1.176 0 .984.384 1.488.408.504 1.008.672.624.168 1.224.168.984 0 1.8-.336t1.368-1.2q.096-.192.144-.408t.048-.528M71.44 4.52h.84q.193 0 .265.072.072.048.072.24v3.312h2.928q.168 0 .216.072a.26.26 0 0 1 .072.192v.48q0 .264-.288.312-.384.048-1.08.096-.672.024-1.848.072v8.064q0 .888.384 1.248t1.296.36q.312 0 .552-.024t.528-.048q.36-.048.384.264l.048.432q.048.216-.048.312a.44.44 0 0 1-.24.144 3 3 0 0 1-.696.144 7 7 0 0 1-1.128.072q-.672 0-1.272-.216a2.05 2.05 0 0 1-.984-.744q-.36-.528-.36-1.464V9.368q-.504-.048-1.032-.072-.528-.048-.864-.096-.168-.024-.24-.096a.4.4 0 0 1-.048-.216v-.456q0-.288.288-.288h1.896V4.832q0-.168.072-.24.096-.072.288-.072m5.816-2.352h2.808q.144 0 .24.072.12.072.12.216v7.272q.672-.936 1.56-1.392.912-.48 2.256-.48 1.152 0 1.896.36.744.336 1.128.888.408.528.552 1.104.168.576.168 1.032v7.536q.36.024.792.072t.672.096q.192.024.216.096.048.072.048.264v.432a.26.26 0 0 1-.072.192q-.048.072-.192.072H84.84q-.288 0-.288-.288v-.48q0-.264.264-.312.144-.024.432-.048a8 8 0 0 1 .648-.072 8 8 0 0 1 .552-.024v-7.32q0-.432-.216-.96-.192-.528-.744-.912-.552-.408-1.632-.408-1.056 0-1.704.288t-1.008.72q-.36.408-.576.792a.8.8 0 0 0-.12.264 2 2 0 0 0-.024.36v7.176q.504.024 1.008.072.528.024.84.072.216.048.216.312v.504q0 .144-.072.216A.4.4 0 0 1 82.2 20h-4.728q-.168 0-.24-.048-.072-.072-.072-.216v-.552q0-.216.216-.264.096-.024.552-.072t.96-.072V3.392A31 31 0 0 0 78 3.296a10 10 0 0 1-.744-.096q-.288-.048-.288-.312v-.48q0-.24.288-.24m19.488 5.688q1.584 0 2.496.528.936.504 1.368 1.32.456.792.576 1.68.144.888.144 1.632v.816q0 .288-.12.384t-.384.096h-7.608v.216q0 .552.096 1.344.096.768.432 1.488t1.056 1.2 1.944.48q.96 0 1.584-.192.624-.216 1.056-.528.456-.336.864-.648.168-.12.312-.096.168 0 .288.192l.168.264q.144.192.096.36a1 1 0 0 1-.192.312q-.24.24-.792.648-.528.384-1.392.672-.864.312-2.136.312A6.6 6.6 0 0 1 94.608 20a3.95 3.95 0 0 1-1.584-1.008q-.672-.696-1.032-1.848-.336-1.152-.336-2.832v-.432q0-1.032.216-2.088.24-1.056.792-1.944a3.9 3.9 0 0 1 1.536-1.44q1.008-.552 2.544-.552m-3.528 5.304h6.552v-.192q0-1.344-.312-2.208t-1.008-1.272q-.672-.432-1.848-.432-1.08 0-1.752.432a2.84 2.84 0 0 0-1.032 1.056q-.36.624-.48 1.296-.12.648-.12 1.152zm12.957-5.016q.192 0 .264.072t.096.24q.072.288.096.696t.048.888q.768-1.368 1.704-1.776a4.9 4.9 0 0 1 1.944-.408q.576 0 .912.072.336.048.504.144.12.048.168.144.072.072.072.24v1.872q0 .432-.168.576-.168.12-.48.12h-.24q-.336 0-.48-.144t-.144-.528V9.248a3 3 0 0 0-.504-.048q-1.152 0-1.872.648t-1.2 1.656q-.072.24-.144.456a1.4 1.4 0 0 0-.048.336v6.48q.672.024 1.248.072.576.024.888.072.24.024.24.264v.576q0 .144-.048.192t-.192.048h-5.208a.34.34 0 0 1-.192-.048q-.072-.048-.072-.192v-.624q0-.168.216-.216a8 8 0 0 1 .648-.072q.336-.048.936-.072V9.368a31 31 0 0 0-.888-.096 22 22 0 0 1-.768-.12q-.24-.024-.24-.288V8.36q0-.12.072-.168a.5.5 0 0 1 .216-.048zm15.653-4.752q2.112-.024 3.168.48 1.08.504 1.632 1.248l.096-1.08q.024-.192.096-.24a.43.43 0 0 1 .264-.072h.624q.168 0 .24.072.072.048.072.24v4.656q0 .168-.072.264t-.264.096h-.552q-.216 0-.312-.096a.6.6 0 0 1-.096-.264l-.048-.336q-.024-.192-.072-.528-.24-1.632-1.416-2.424-1.152-.816-3.36-.816-1.464 0-2.496.576a4.84 4.84 0 0 0-1.704 1.512 7.3 7.3 0 0 0-.984 2.208 10.5 10.5 0 0 0-.312 2.592v.672q0 2.328.6 3.864t1.8 2.304q1.224.744 3 .744 1.608 0 2.568-.384t1.464-.912q.528-.528.768-.912.192-.264.168-.456v-3.192q-.576 0-1.416-.024l-1.536-.048a80 80 0 0 1-.984-.072.6.6 0 0 1-.216-.072q-.072-.072-.072-.24v-.504q0-.144.072-.192.072-.072.216-.072h5.208q.168 0 .24.072.096.072.096.288v7.296q0 .192-.072.288-.048.072-.216.072h-.84q-.168 0-.24-.072a.36.36 0 0 1-.096-.168l-.072-.576q-.024-.384-.024-.912-.216.24-.576.6a4.5 4.5 0 0 1-.912.672q-.576.336-1.488.552-.888.24-2.208.24-2.352 0-3.888-.96-1.536-.984-2.28-2.832t-.744-4.392v-.624q0-1.608.408-3.048.432-1.464 1.296-2.592a5.9 5.9 0 0 1 2.232-1.8q1.368-.672 3.24-.696m15.097 4.464q1.488 0 2.496.48t1.584 1.296q.6.816.84 1.872.264 1.056.264 2.208v.48q0 1.08-.216 2.184a5.6 5.6 0 0 1-.792 1.968q-.552.888-1.608 1.44t-2.76.552q-1.608 0-2.64-.504-1.008-.528-1.584-1.392a5.9 5.9 0 0 1-.768-1.992 13.3 13.3 0 0 1-.192-2.28v-.408q0-1.128.264-2.16a5.6 5.6 0 0 1 .912-1.896 4.7 4.7 0 0 1 1.68-1.344q1.032-.504 2.52-.504m-.096 1.2q-1.368 0-2.184.624t-1.176 1.704q-.336 1.056-.336 2.376v.432q0 1.512.336 2.64.36 1.104 1.152 1.704.816.6 2.208.6t2.208-.6 1.152-1.704q.336-1.128.336-2.616v-.432a9 9 0 0 0-.168-1.728 4.3 4.3 0 0 0-.552-1.536 2.67 2.67 0 0 0-1.128-1.056q-.72-.408-1.848-.408m6.813-.912h4.512q.288 0 .288.24v.48q0 .24-.216.288-.312.048-.864.096t-.96.096a174 174 0 0 1 1.008 3.12q.504 1.536 1.008 3l.984 2.808h.144q.552-1.368 1.08-2.808.552-1.464 1.08-2.976.552-1.536 1.104-3.12a18 18 0 0 0-.912-.12 44 44 0 0 1-.84-.096.5.5 0 0 1-.168-.072q-.072-.048-.072-.192v-.552q0-.192.216-.192h4.08q.168 0 .216.072.072.048.072.168v.432q0 .168-.048.24t-.216.12q-.216.048-.456.096-.216.024-.504.072a895 895 0 0 1-1.344 3.624 268 268 0 0 1-1.344 3.48q-.648 1.704-1.32 3.312-.048.144-.144.192a.34.34 0 0 1-.192.048H148.8a.5.5 0 0 1-.24-.048.6.6 0 0 1-.168-.24q-.936-2.4-1.824-5.016l-1.824-5.376-.6-.096a6 6 0 0 0-.528-.072q-.216-.024-.216-.288v-.456q0-.264.24-.264"/><defs><clipPath id="a"><path fill="#fff" d="M7.788 5.988h19.768V18H7.788z"/></clipPath></defs></svg>